<svg xmlns="http://www.w3.org/2000/svg" xmlns:xlink="http://www.w3.org/1999/xlink" width="500" zoomAndPan="magnify" viewBox="0 0 375 374.999991" height="500" preserveAspectRatio="xMidYMid meet" version="1.0"><defs><g/><clipPath id="17c7bf9169"><path d="M 110 149.417969 L 212.945312 149.417969 L 212.945312 210.824219 L 110 210.824219 Z M 110 149.417969 " clip-rule="nonzero"/></clipPath><clipPath id="cfad11e230"><path d="M 110.058594 210.699219 L 142.378906 149.671875 L 209.613281 149.671875 L 212.457031 154.328125 Z M 110.058594 210.699219 " clip-rule="nonzero"/></clipPath><clipPath id="e3cbd86265"><path d="M 109.445312 149.417969 L 212.945312 149.417969 L 212.945312 211.320312 L 109.445312 211.320312 Z M 109.445312 149.417969 " clip-rule="nonzero"/></clipPath><clipPath id="91fb59a5b2"><path d="M 109.835938 210.585938 L 142.230469 149.425781 L 209.753906 149.425781 L 212.804688 154.421875 L 109.449219 211.320312 L 109.835938 210.585938 M 110.269531 210.816406 L 110.054688 210.703125 L 109.933594 210.484375 L 212.335938 154.113281 L 212.453125 154.332031 L 212.242188 154.460938 L 209.394531 149.804688 L 209.609375 149.675781 L 209.609375 149.925781 L 142.378906 149.925781 L 142.378906 149.675781 L 142.59375 149.792969 L 110.277344 210.816406 Z M 110.269531 210.816406 " clip-rule="nonzero"/></clipPath><clipPath id="1e6fe83c41"><path d="M 177.289062 67 L 265.4375 67 L 265.4375 210.824219 L 177.289062 210.824219 Z M 177.289062 67 " clip-rule="nonzero"/></clipPath><clipPath id="87f4f0d8ad"><path d="M 177.492188 84.511719 L 190.269531 67.1875 L 265.152344 209.410156 L 241.621094 210.703125 Z M 177.492188 84.511719 " clip-rule="nonzero"/></clipPath><clipPath id="631b29bf33"><path d="M 177 66.71875 L 265.933594 66.71875 L 265.933594 211 L 177 211 Z M 177 66.71875 " clip-rule="nonzero"/></clipPath><clipPath id="ca55dc70e8"><path d="M 177.289062 84.363281 L 190.304688 66.71875 L 265.550781 209.632812 L 241.472656 210.957031 L 177.289062 84.363281 M 177.6875 84.65625 L 177.488281 84.507812 L 177.710938 84.394531 L 241.839844 210.589844 L 241.617188 210.703125 L 241.601562 210.457031 L 265.132812 209.164062 L 265.148438 209.410156 L 264.929688 209.523438 L 190.269531 67.1875 L 190.46875 67.335938 L 177.691406 84.660156 Z M 177.6875 84.65625 " clip-rule="nonzero"/></clipPath></defs><g clip-path="url(#17c7bf9169)"><g clip-path="url(#cfad11e230)"><path fill="#f3b41b" d="M 106.96875 64.242188 L 267.914062 64.242188 L 267.914062 213.796875 L 106.96875 213.796875 Z M 106.96875 64.242188 " fill-opacity="1" fill-rule="nonzero"/></g></g><g clip-path="url(#e3cbd86265)"><g clip-path="url(#91fb59a5b2)"><path fill="#f3b41b" d="M 106.96875 64.242188 L 267.914062 64.242188 L 267.914062 213.796875 L 106.96875 213.796875 Z M 106.96875 64.242188 " fill-opacity="1" fill-rule="nonzero"/></g></g><g clip-path="url(#1e6fe83c41)"><g clip-path="url(#87f4f0d8ad)"><path fill="#123d59" d="M 106.96875 64.242188 L 267.914062 64.242188 L 267.914062 213.796875 L 106.96875 213.796875 Z M 106.96875 64.242188 " fill-opacity="1" fill-rule="nonzero"/></g></g><g clip-path="url(#631b29bf33)"><g clip-path="url(#ca55dc70e8)"><path fill="#123d59" d="M 106.96875 64.242188 L 267.914062 64.242188 L 267.914062 213.796875 L 106.96875 213.796875 Z M 106.96875 64.242188 " fill-opacity="1" fill-rule="nonzero"/></g></g><g fill="#123d59" fill-opacity="1"><g transform="translate(61.268845, 317.090605)"><g><path d="M 9.15625 -2.28125 C 9.226562 -2.28125 9.296875 -2.242188 9.359375 -2.171875 L 9.953125 -1.53125 C 9.503906 -1.007812 8.957031 -0.601562 8.3125 -0.3125 C 7.664062 -0.0195312 6.890625 0.125 5.984375 0.125 C 5.191406 0.125 4.472656 -0.0078125 3.828125 -0.28125 C 3.179688 -0.5625 2.628906 -0.945312 2.171875 -1.4375 C 1.710938 -1.9375 1.359375 -2.53125 1.109375 -3.21875 C 0.859375 -3.914062 0.734375 -4.679688 0.734375 -5.515625 C 0.734375 -6.335938 0.863281 -7.09375 1.125 -7.78125 C 1.382812 -8.476562 1.75 -9.078125 2.21875 -9.578125 C 2.695312 -10.078125 3.265625 -10.460938 3.921875 -10.734375 C 4.585938 -11.015625 5.320312 -11.15625 6.125 -11.15625 C 6.90625 -11.15625 7.597656 -11.023438 8.203125 -10.765625 C 8.804688 -10.515625 9.332031 -10.175781 9.78125 -9.75 L 9.296875 -9.0625 C 9.265625 -9.007812 9.222656 -8.96875 9.171875 -8.9375 C 9.128906 -8.90625 9.066406 -8.890625 8.984375 -8.890625 C 8.890625 -8.890625 8.773438 -8.9375 8.640625 -9.03125 C 8.503906 -9.132812 8.328125 -9.25 8.109375 -9.375 C 7.898438 -9.5 7.632812 -9.609375 7.3125 -9.703125 C 6.988281 -9.804688 6.59375 -9.859375 6.125 -9.859375 C 5.550781 -9.859375 5.023438 -9.757812 4.546875 -9.5625 C 4.078125 -9.363281 3.671875 -9.078125 3.328125 -8.703125 C 2.992188 -8.328125 2.726562 -7.867188 2.53125 -7.328125 C 2.34375 -6.796875 2.25 -6.191406 2.25 -5.515625 C 2.25 -4.828125 2.347656 -4.210938 2.546875 -3.671875 C 2.742188 -3.128906 3.015625 -2.671875 3.359375 -2.296875 C 3.703125 -1.929688 4.101562 -1.648438 4.5625 -1.453125 C 5.03125 -1.253906 5.535156 -1.15625 6.078125 -1.15625 C 6.398438 -1.15625 6.691406 -1.175781 6.953125 -1.21875 C 7.222656 -1.257812 7.46875 -1.320312 7.6875 -1.40625 C 7.914062 -1.488281 8.125 -1.59375 8.3125 -1.71875 C 8.507812 -1.84375 8.703125 -1.988281 8.890625 -2.15625 C 8.972656 -2.238281 9.0625 -2.28125 9.15625 -2.28125 Z M 9.15625 -2.28125 "/></g></g></g><g fill="#123d59" fill-opacity="1"><g transform="translate(71.932113, 317.090605)"><g><path d="M 11.59375 -5.515625 C 11.59375 -4.679688 11.460938 -3.921875 11.203125 -3.234375 C 10.941406 -2.546875 10.570312 -1.953125 10.09375 -1.453125 C 9.613281 -0.953125 9.039062 -0.566406 8.375 -0.296875 C 7.707031 -0.0234375 6.96875 0.109375 6.15625 0.109375 C 5.34375 0.109375 4.601562 -0.0234375 3.9375 -0.296875 C 3.269531 -0.566406 2.695312 -0.953125 2.21875 -1.453125 C 1.75 -1.953125 1.378906 -2.546875 1.109375 -3.234375 C 0.847656 -3.921875 0.71875 -4.679688 0.71875 -5.515625 C 0.71875 -6.335938 0.847656 -7.09375 1.109375 -7.78125 C 1.378906 -8.46875 1.75 -9.0625 2.21875 -9.5625 C 2.695312 -10.0625 3.269531 -10.453125 3.9375 -10.734375 C 4.601562 -11.015625 5.34375 -11.15625 6.15625 -11.15625 C 6.96875 -11.15625 7.707031 -11.015625 8.375 -10.734375 C 9.039062 -10.453125 9.613281 -10.0625 10.09375 -9.5625 C 10.570312 -9.0625 10.941406 -8.46875 11.203125 -7.78125 C 11.460938 -7.09375 11.59375 -6.335938 11.59375 -5.515625 Z M 10.0625 -5.515625 C 10.0625 -6.191406 9.96875 -6.796875 9.78125 -7.328125 C 9.601562 -7.867188 9.34375 -8.320312 9 -8.6875 C 8.664062 -9.0625 8.253906 -9.347656 7.765625 -9.546875 C 7.285156 -9.753906 6.75 -9.859375 6.15625 -9.859375 C 5.5625 -9.859375 5.023438 -9.753906 4.546875 -9.546875 C 4.066406 -9.347656 3.65625 -9.0625 3.3125 -8.6875 C 2.96875 -8.320312 2.703125 -7.867188 2.515625 -7.328125 C 2.335938 -6.796875 2.25 -6.191406 2.25 -5.515625 C 2.25 -4.835938 2.335938 -4.226562 2.515625 -3.6875 C 2.703125 -3.15625 2.96875 -2.703125 3.3125 -2.328125 C 3.65625 -1.953125 4.066406 -1.664062 4.546875 -1.46875 C 5.023438 -1.269531 5.5625 -1.171875 6.15625 -1.171875 C 6.75 -1.171875 7.285156 -1.269531 7.765625 -1.46875 C 8.253906 -1.664062 8.664062 -1.953125 9 -2.328125 C 9.34375 -2.703125 9.601562 -3.15625 9.78125 -3.6875 C 9.96875 -4.226562 10.0625 -4.835938 10.0625 -5.515625 Z M 10.0625 -5.515625 "/></g></g></g><g fill="#123d59" fill-opacity="1"><g transform="translate(84.634102, 317.090605)"><g><path d="M 10.34375 -11.03125 L 10.34375 0 L 9.59375 0 C 9.476562 0 9.378906 -0.0195312 9.296875 -0.0625 C 9.222656 -0.101562 9.144531 -0.171875 9.0625 -0.265625 L 2.6875 -8.578125 C 2.695312 -8.453125 2.703125 -8.328125 2.703125 -8.203125 C 2.710938 -8.078125 2.71875 -7.960938 2.71875 -7.859375 L 2.71875 0 L 1.40625 0 L 1.40625 -11.03125 L 2.171875 -11.03125 C 2.242188 -11.03125 2.300781 -11.023438 2.34375 -11.015625 C 2.394531 -11.003906 2.4375 -10.988281 2.46875 -10.96875 C 2.507812 -10.957031 2.546875 -10.929688 2.578125 -10.890625 C 2.609375 -10.859375 2.644531 -10.816406 2.6875 -10.765625 L 9.078125 -2.46875 C 9.066406 -2.601562 9.054688 -2.734375 9.046875 -2.859375 C 9.035156 -2.984375 9.03125 -3.101562 9.03125 -3.21875 L 9.03125 -11.03125 Z M 10.34375 -11.03125 "/></g></g></g><g fill="#123d59" fill-opacity="1"><g transform="translate(96.766792, 317.090605)"><g><path d="M 7.046875 -9.296875 C 7.003906 -9.222656 6.953125 -9.164062 6.890625 -9.125 C 6.835938 -9.09375 6.773438 -9.078125 6.703125 -9.078125 C 6.617188 -9.078125 6.515625 -9.117188 6.390625 -9.203125 C 6.273438 -9.285156 6.128906 -9.378906 5.953125 -9.484375 C 5.773438 -9.597656 5.5625 -9.695312 5.3125 -9.78125 C 5.0625 -9.863281 4.757812 -9.90625 4.40625 -9.90625 C 4.070312 -9.90625 3.773438 -9.859375 3.515625 -9.765625 C 3.265625 -9.679688 3.050781 -9.5625 2.875 -9.40625 C 2.707031 -9.257812 2.582031 -9.082031 2.5 -8.875 C 2.414062 -8.664062 2.375 -8.441406 2.375 -8.203125 C 2.375 -7.890625 2.445312 -7.628906 2.59375 -7.421875 C 2.75 -7.222656 2.953125 -7.050781 3.203125 -6.90625 C 3.453125 -6.757812 3.734375 -6.632812 4.046875 -6.53125 C 4.359375 -6.425781 4.679688 -6.316406 5.015625 -6.203125 C 5.347656 -6.097656 5.671875 -5.972656 5.984375 -5.828125 C 6.296875 -5.691406 6.578125 -5.515625 6.828125 -5.296875 C 7.078125 -5.078125 7.273438 -4.8125 7.421875 -4.5 C 7.578125 -4.1875 7.65625 -3.800781 7.65625 -3.34375 C 7.65625 -2.863281 7.570312 -2.410156 7.40625 -1.984375 C 7.25 -1.566406 7.007812 -1.203125 6.6875 -0.890625 C 6.375 -0.578125 5.988281 -0.328125 5.53125 -0.140625 C 5.070312 0.0351562 4.550781 0.125 3.96875 0.125 C 3.25 0.125 2.59375 -0.00390625 2 -0.265625 C 1.414062 -0.523438 0.921875 -0.875 0.515625 -1.3125 L 0.9375 -2.03125 C 0.976562 -2.082031 1.023438 -2.125 1.078125 -2.15625 C 1.140625 -2.195312 1.207031 -2.21875 1.28125 -2.21875 C 1.351562 -2.21875 1.429688 -2.191406 1.515625 -2.140625 C 1.597656 -2.085938 1.691406 -2.019531 1.796875 -1.9375 C 1.910156 -1.851562 2.035156 -1.765625 2.171875 -1.671875 C 2.304688 -1.578125 2.460938 -1.488281 2.640625 -1.40625 C 2.816406 -1.320312 3.019531 -1.25 3.25 -1.1875 C 3.476562 -1.132812 3.734375 -1.109375 4.015625 -1.109375 C 4.367188 -1.109375 4.679688 -1.15625 4.953125 -1.25 C 5.234375 -1.351562 5.46875 -1.492188 5.65625 -1.671875 C 5.851562 -1.847656 6 -2.054688 6.09375 -2.296875 C 6.195312 -2.546875 6.25 -2.820312 6.25 -3.125 C 6.25 -3.457031 6.171875 -3.726562 6.015625 -3.9375 C 5.867188 -4.15625 5.671875 -4.335938 5.421875 -4.484375 C 5.179688 -4.628906 4.898438 -4.75 4.578125 -4.84375 C 4.265625 -4.945312 3.941406 -5.050781 3.609375 -5.15625 C 3.285156 -5.257812 2.960938 -5.378906 2.640625 -5.515625 C 2.328125 -5.660156 2.046875 -5.84375 1.796875 -6.0625 C 1.554688 -6.28125 1.359375 -6.554688 1.203125 -6.890625 C 1.054688 -7.222656 0.984375 -7.632812 0.984375 -8.125 C 0.984375 -8.507812 1.054688 -8.882812 1.203125 -9.25 C 1.359375 -9.613281 1.578125 -9.9375 1.859375 -10.21875 C 2.148438 -10.5 2.507812 -10.722656 2.9375 -10.890625 C 3.363281 -11.066406 3.847656 -11.15625 4.390625 -11.15625 C 5.003906 -11.15625 5.5625 -11.054688 6.0625 -10.859375 C 6.570312 -10.660156 7.019531 -10.378906 7.40625 -10.015625 Z M 7.046875 -9.296875 "/></g></g></g><g fill="#123d59" fill-opacity="1"><g transform="translate(105.499043, 317.090605)"><g><path d="M 8.859375 -9.765625 L 5.296875 -9.765625 L 5.296875 0 L 3.8125 0 L 3.8125 -9.765625 L 0.234375 -9.765625 L 0.234375 -11.03125 L 8.859375 -11.03125 Z M 8.859375 -9.765625 "/></g></g></g><g fill="#123d59" fill-opacity="1"><g transform="translate(114.969847, 317.090605)"><g><path d="M 4.46875 -5.6875 C 4.894531 -5.6875 5.273438 -5.738281 5.609375 -5.84375 C 5.941406 -5.945312 6.21875 -6.09375 6.4375 -6.28125 C 6.65625 -6.476562 6.820312 -6.707031 6.9375 -6.96875 C 7.050781 -7.238281 7.109375 -7.535156 7.109375 -7.859375 C 7.109375 -8.515625 6.890625 -9.007812 6.453125 -9.34375 C 6.023438 -9.675781 5.382812 -9.84375 4.53125 -9.84375 L 2.890625 -9.84375 L 2.890625 -5.6875 Z M 9.5625 0 L 8.234375 0 C 7.960938 0 7.765625 -0.101562 7.640625 -0.3125 L 4.765625 -4.25 C 4.679688 -4.375 4.585938 -4.460938 4.484375 -4.515625 C 4.390625 -4.578125 4.238281 -4.609375 4.03125 -4.609375 L 2.890625 -4.609375 L 2.890625 0 L 1.40625 0 L 1.40625 -11.03125 L 4.53125 -11.03125 C 5.226562 -11.03125 5.828125 -10.957031 6.328125 -10.8125 C 6.835938 -10.675781 7.257812 -10.472656 7.59375 -10.203125 C 7.925781 -9.929688 8.171875 -9.609375 8.328125 -9.234375 C 8.484375 -8.859375 8.5625 -8.4375 8.5625 -7.96875 C 8.5625 -7.582031 8.5 -7.21875 8.375 -6.875 C 8.257812 -6.539062 8.082031 -6.238281 7.84375 -5.96875 C 7.613281 -5.695312 7.328125 -5.46875 6.984375 -5.28125 C 6.648438 -5.09375 6.269531 -4.945312 5.84375 -4.84375 C 6.039062 -4.738281 6.207031 -4.582031 6.34375 -4.375 Z M 9.5625 0 "/></g></g></g><g fill="#123d59" fill-opacity="1"><g transform="translate(124.994567, 317.090605)"><g><path d="M 5.65625 -1.1875 C 6.113281 -1.1875 6.519531 -1.257812 6.875 -1.40625 C 7.238281 -1.5625 7.546875 -1.78125 7.796875 -2.0625 C 8.046875 -2.34375 8.234375 -2.671875 8.359375 -3.046875 C 8.492188 -3.429688 8.5625 -3.859375 8.5625 -4.328125 L 8.5625 -11.03125 L 10.046875 -11.03125 L 10.046875 -4.328125 C 10.046875 -3.691406 9.941406 -3.097656 9.734375 -2.546875 C 9.535156 -2.003906 9.25 -1.535156 8.875 -1.140625 C 8.5 -0.742188 8.035156 -0.429688 7.484375 -0.203125 C 6.941406 0.015625 6.332031 0.125 5.65625 0.125 C 4.976562 0.125 4.367188 0.015625 3.828125 -0.203125 C 3.285156 -0.429688 2.820312 -0.742188 2.4375 -1.140625 C 2.0625 -1.535156 1.769531 -2.003906 1.5625 -2.546875 C 1.363281 -3.097656 1.265625 -3.691406 1.265625 -4.328125 L 1.265625 -11.03125 L 2.75 -11.03125 L 2.75 -4.328125 C 2.75 -3.867188 2.8125 -3.445312 2.9375 -3.0625 C 3.070312 -2.675781 3.265625 -2.34375 3.515625 -2.0625 C 3.765625 -1.789062 4.070312 -1.578125 4.4375 -1.421875 C 4.800781 -1.265625 5.207031 -1.1875 5.65625 -1.1875 Z M 5.65625 -1.1875 "/></g></g></g><g fill="#123d59" fill-opacity="1"><g transform="translate(136.696431, 317.090605)"><g><path d="M 9.15625 -2.28125 C 9.226562 -2.28125 9.296875 -2.242188 9.359375 -2.171875 L 9.953125 -1.53125 C 9.503906 -1.007812 8.957031 -0.601562 8.3125 -0.3125 C 7.664062 -0.0195312 6.890625 0.125 5.984375 0.125 C 5.191406 0.125 4.472656 -0.0078125 3.828125 -0.28125 C 3.179688 -0.5625 2.628906 -0.945312 2.171875 -1.4375 C 1.710938 -1.9375 1.359375 -2.53125 1.109375 -3.21875 C 0.859375 -3.914062 0.734375 -4.679688 0.734375 -5.515625 C 0.734375 -6.335938 0.863281 -7.09375 1.125 -7.78125 C 1.382812 -8.476562 1.75 -9.078125 2.21875 -9.578125 C 2.695312 -10.078125 3.265625 -10.460938 3.921875 -10.734375 C 4.585938 -11.015625 5.320312 -11.15625 6.125 -11.15625 C 6.90625 -11.15625 7.597656 -11.023438 8.203125 -10.765625 C 8.804688 -10.515625 9.332031 -10.175781 9.78125 -9.75 L 9.296875 -9.0625 C 9.265625 -9.007812 9.222656 -8.96875 9.171875 -8.9375 C 9.128906 -8.90625 9.066406 -8.890625 8.984375 -8.890625 C 8.890625 -8.890625 8.773438 -8.9375 8.640625 -9.03125 C 8.503906 -9.132812 8.328125 -9.25 8.109375 -9.375 C 7.898438 -9.5 7.632812 -9.609375 7.3125 -9.703125 C 6.988281 -9.804688 6.59375 -9.859375 6.125 -9.859375 C 5.550781 -9.859375 5.023438 -9.757812 4.546875 -9.5625 C 4.078125 -9.363281 3.671875 -9.078125 3.328125 -8.703125 C 2.992188 -8.328125 2.726562 -7.867188 2.53125 -7.328125 C 2.34375 -6.796875 2.25 -6.191406 2.25 -5.515625 C 2.25 -4.828125 2.347656 -4.210938 2.546875 -3.671875 C 2.742188 -3.128906 3.015625 -2.671875 3.359375 -2.296875 C 3.703125 -1.929688 4.101562 -1.648438 4.5625 -1.453125 C 5.03125 -1.253906 5.535156 -1.15625 6.078125 -1.15625 C 6.398438 -1.15625 6.691406 -1.175781 6.953125 -1.21875 C 7.222656 -1.257812 7.46875 -1.320312 7.6875 -1.40625 C 7.914062 -1.488281 8.125 -1.59375 8.3125 -1.71875 C 8.507812 -1.84375 8.703125 -1.988281 8.890625 -2.15625 C 8.972656 -2.238281 9.0625 -2.28125 9.15625 -2.28125 Z M 9.15625 -2.28125 "/></g></g></g><g fill="#123d59" fill-opacity="1"><g transform="translate(147.359697, 317.090605)"><g><path d="M 8.859375 -9.765625 L 5.296875 -9.765625 L 5.296875 0 L 3.8125 0 L 3.8125 -9.765625 L 0.234375 -9.765625 L 0.234375 -11.03125 L 8.859375 -11.03125 Z M 8.859375 -9.765625 "/></g></g></g><g fill="#123d59" fill-opacity="1"><g transform="translate(156.830501, 317.090605)"><g><path d="M 2.90625 0 L 1.40625 0 L 1.40625 -11.03125 L 2.90625 -11.03125 Z M 2.90625 0 "/></g></g></g><g fill="#123d59" fill-opacity="1"><g transform="translate(161.523774, 317.090605)"><g><path d="M 11.59375 -5.515625 C 11.59375 -4.679688 11.460938 -3.921875 11.203125 -3.234375 C 10.941406 -2.546875 10.570312 -1.953125 10.09375 -1.453125 C 9.613281 -0.953125 9.039062 -0.566406 8.375 -0.296875 C 7.707031 -0.0234375 6.96875 0.109375 6.15625 0.109375 C 5.34375 0.109375 4.601562 -0.0234375 3.9375 -0.296875 C 3.269531 -0.566406 2.695312 -0.953125 2.21875 -1.453125 C 1.75 -1.953125 1.378906 -2.546875 1.109375 -3.234375 C 0.847656 -3.921875 0.71875 -4.679688 0.71875 -5.515625 C 0.71875 -6.335938 0.847656 -7.09375 1.109375 -7.78125 C 1.378906 -8.46875 1.75 -9.0625 2.21875 -9.5625 C 2.695312 -10.0625 3.269531 -10.453125 3.9375 -10.734375 C 4.601562 -11.015625 5.34375 -11.15625 6.15625 -11.15625 C 6.96875 -11.15625 7.707031 -11.015625 8.375 -10.734375 C 9.039062 -10.453125 9.613281 -10.0625 10.09375 -9.5625 C 10.570312 -9.0625 10.941406 -8.46875 11.203125 -7.78125 C 11.460938 -7.09375 11.59375 -6.335938 11.59375 -5.515625 Z M 10.0625 -5.515625 C 10.0625 -6.191406 9.96875 -6.796875 9.78125 -7.328125 C 9.601562 -7.867188 9.34375 -8.320312 9 -8.6875 C 8.664062 -9.0625 8.253906 -9.347656 7.765625 -9.546875 C 7.285156 -9.753906 6.75 -9.859375 6.15625 -9.859375 C 5.5625 -9.859375 5.023438 -9.753906 4.546875 -9.546875 C 4.066406 -9.347656 3.65625 -9.0625 3.3125 -8.6875 C 2.96875 -8.320312 2.703125 -7.867188 2.515625 -7.328125 C 2.335938 -6.796875 2.25 -6.191406 2.25 -5.515625 C 2.25 -4.835938 2.335938 -4.226562 2.515625 -3.6875 C 2.703125 -3.15625 2.96875 -2.703125 3.3125 -2.328125 C 3.65625 -1.953125 4.066406 -1.664062 4.546875 -1.46875 C 5.023438 -1.269531 5.5625 -1.171875 6.15625 -1.171875 C 6.75 -1.171875 7.285156 -1.269531 7.765625 -1.46875 C 8.253906 -1.664062 8.664062 -1.953125 9 -2.328125 C 9.34375 -2.703125 9.601562 -3.15625 9.78125 -3.6875 C 9.96875 -4.226562 10.0625 -4.835938 10.0625 -5.515625 Z M 10.0625 -5.515625 "/></g></g></g><g fill="#123d59" fill-opacity="1"><g transform="translate(174.225765, 317.090605)"><g><path d="M 10.34375 -11.03125 L 10.34375 0 L 9.59375 0 C 9.476562 0 9.378906 -0.0195312 9.296875 -0.0625 C 9.222656 -0.101562 9.144531 -0.171875 9.0625 -0.265625 L 2.6875 -8.578125 C 2.695312 -8.453125 2.703125 -8.328125 2.703125 -8.203125 C 2.710938 -8.078125 2.71875 -7.960938 2.71875 -7.859375 L 2.71875 0 L 1.40625 0 L 1.40625 -11.03125 L 2.171875 -11.03125 C 2.242188 -11.03125 2.300781 -11.023438 2.34375 -11.015625 C 2.394531 -11.003906 2.4375 -10.988281 2.46875 -10.96875 C 2.507812 -10.957031 2.546875 -10.929688 2.578125 -10.890625 C 2.609375 -10.859375 2.644531 -10.816406 2.6875 -10.765625 L 9.078125 -2.46875 C 9.066406 -2.601562 9.054688 -2.734375 9.046875 -2.859375 C 9.035156 -2.984375 9.03125 -3.101562 9.03125 -3.21875 L 9.03125 -11.03125 Z M 10.34375 -11.03125 "/></g></g></g><g fill="#289dd2" fill-opacity="1"><g transform="translate(186.366493, 317.090605)"><g/></g></g><g fill="#f3b41b" fill-opacity="1"><g transform="translate(190.690715, 317.090605)"><g><path d="M 1.390625 -11.796875 L 2.46875 -11.796875 L 2.46875 2.6875 L 1.390625 2.6875 Z M 1.390625 -11.796875 "/></g></g></g><g fill="#289dd2" fill-opacity="1"><g transform="translate(194.932902, 317.090605)"><g/></g></g><g fill="#123d59" fill-opacity="1"><g transform="translate(199.257117, 317.090605)"><g><path d="M 12.875 -11.03125 L 12.875 0 L 11.578125 0 L 11.578125 -8.109375 C 11.578125 -8.210938 11.578125 -8.328125 11.578125 -8.453125 C 11.585938 -8.578125 11.597656 -8.703125 11.609375 -8.828125 L 7.828125 -1.9375 C 7.710938 -1.695312 7.53125 -1.578125 7.28125 -1.578125 L 7.078125 -1.578125 C 6.828125 -1.578125 6.644531 -1.695312 6.53125 -1.9375 L 2.671875 -8.859375 C 2.703125 -8.585938 2.71875 -8.335938 2.71875 -8.109375 L 2.71875 0 L 1.40625 0 L 1.40625 -11.03125 L 2.515625 -11.03125 C 2.640625 -11.03125 2.738281 -11.015625 2.8125 -10.984375 C 2.882812 -10.960938 2.957031 -10.890625 3.03125 -10.765625 L 6.828125 -3.984375 C 6.890625 -3.859375 6.953125 -3.726562 7.015625 -3.59375 C 7.078125 -3.46875 7.128906 -3.332031 7.171875 -3.1875 C 7.222656 -3.332031 7.273438 -3.472656 7.328125 -3.609375 C 7.390625 -3.742188 7.457031 -3.875 7.53125 -4 L 11.265625 -10.765625 C 11.328125 -10.890625 11.394531 -10.960938 11.46875 -10.984375 C 11.539062 -11.015625 11.644531 -11.03125 11.78125 -11.03125 Z M 12.875 -11.03125 "/></g></g></g><g fill="#123d59" fill-opacity="1"><g transform="translate(213.928587, 317.090605)"><g><path d="M 7.265625 -4.09375 L 5.53125 -8.578125 C 5.476562 -8.710938 5.421875 -8.867188 5.359375 -9.046875 C 5.304688 -9.222656 5.253906 -9.410156 5.203125 -9.609375 C 5.097656 -9.191406 4.988281 -8.847656 4.875 -8.578125 L 3.140625 -4.09375 Z M 10.375 0 L 9.21875 0 C 9.082031 0 8.972656 -0.03125 8.890625 -0.09375 C 8.804688 -0.164062 8.75 -0.253906 8.71875 -0.359375 L 7.6875 -3.015625 L 2.734375 -3.015625 L 1.703125 -0.359375 C 1.671875 -0.265625 1.609375 -0.179688 1.515625 -0.109375 C 1.429688 -0.0351562 1.328125 0 1.203125 0 L 0.046875 0 L 4.453125 -11.03125 L 5.96875 -11.03125 Z M 10.375 0 "/></g></g></g><g fill="#123d59" fill-opacity="1"><g transform="translate(224.730341, 317.090605)"><g><path d="M 10.34375 -11.03125 L 10.34375 0 L 9.59375 0 C 9.476562 0 9.378906 -0.0195312 9.296875 -0.0625 C 9.222656 -0.101562 9.144531 -0.171875 9.0625 -0.265625 L 2.6875 -8.578125 C 2.695312 -8.453125 2.703125 -8.328125 2.703125 -8.203125 C 2.710938 -8.078125 2.71875 -7.960938 2.71875 -7.859375 L 2.71875 0 L 1.40625 0 L 1.40625 -11.03125 L 2.171875 -11.03125 C 2.242188 -11.03125 2.300781 -11.023438 2.34375 -11.015625 C 2.394531 -11.003906 2.4375 -10.988281 2.46875 -10.96875 C 2.507812 -10.957031 2.546875 -10.929688 2.578125 -10.890625 C 2.609375 -10.859375 2.644531 -10.816406 2.6875 -10.765625 L 9.078125 -2.46875 C 9.066406 -2.601562 9.054688 -2.734375 9.046875 -2.859375 C 9.035156 -2.984375 9.03125 -3.101562 9.03125 -3.21875 L 9.03125 -11.03125 Z M 10.34375 -11.03125 "/></g></g></g><g fill="#123d59" fill-opacity="1"><g transform="translate(236.863032, 317.090605)"><g><path d="M 7.265625 -4.09375 L 5.53125 -8.578125 C 5.476562 -8.710938 5.421875 -8.867188 5.359375 -9.046875 C 5.304688 -9.222656 5.253906 -9.410156 5.203125 -9.609375 C 5.097656 -9.191406 4.988281 -8.847656 4.875 -8.578125 L 3.140625 -4.09375 Z M 10.375 0 L 9.21875 0 C 9.082031 0 8.972656 -0.03125 8.890625 -0.09375 C 8.804688 -0.164062 8.75 -0.253906 8.71875 -0.359375 L 7.6875 -3.015625 L 2.734375 -3.015625 L 1.703125 -0.359375 C 1.671875 -0.265625 1.609375 -0.179688 1.515625 -0.109375 C 1.429688 -0.0351562 1.328125 0 1.203125 0 L 0.046875 0 L 4.453125 -11.03125 L 5.96875 -11.03125 Z M 10.375 0 "/></g></g></g><g fill="#123d59" fill-opacity="1"><g transform="translate(247.664786, 317.090605)"><g><path d="M 10.359375 -5.296875 L 10.359375 -1.0625 C 9.804688 -0.664062 9.21875 -0.367188 8.59375 -0.171875 C 7.96875 0.0234375 7.28125 0.125 6.53125 0.125 C 5.632812 0.125 4.832031 -0.0078125 4.125 -0.28125 C 3.414062 -0.5625 2.804688 -0.945312 2.296875 -1.4375 C 1.785156 -1.9375 1.394531 -2.53125 1.125 -3.21875 C 0.851562 -3.914062 0.71875 -4.679688 0.71875 -5.515625 C 0.71875 -6.347656 0.847656 -7.109375 1.109375 -7.796875 C 1.378906 -8.492188 1.757812 -9.085938 2.25 -9.578125 C 2.738281 -10.078125 3.332031 -10.460938 4.03125 -10.734375 C 4.726562 -11.015625 5.503906 -11.15625 6.359375 -11.15625 C 6.796875 -11.15625 7.203125 -11.117188 7.578125 -11.046875 C 7.953125 -10.984375 8.296875 -10.890625 8.609375 -10.765625 C 8.929688 -10.648438 9.226562 -10.503906 9.5 -10.328125 C 9.769531 -10.160156 10.023438 -9.96875 10.265625 -9.75 L 9.84375 -9.078125 C 9.769531 -8.972656 9.679688 -8.90625 9.578125 -8.875 C 9.472656 -8.851562 9.359375 -8.878906 9.234375 -8.953125 C 9.109375 -9.023438 8.96875 -9.113281 8.8125 -9.21875 C 8.65625 -9.320312 8.460938 -9.421875 8.234375 -9.515625 C 8.003906 -9.609375 7.734375 -9.6875 7.421875 -9.75 C 7.109375 -9.820312 6.738281 -9.859375 6.3125 -9.859375 C 5.695312 -9.859375 5.132812 -9.753906 4.625 -9.546875 C 4.125 -9.347656 3.695312 -9.0625 3.34375 -8.6875 C 2.988281 -8.3125 2.71875 -7.851562 2.53125 -7.3125 C 2.34375 -6.78125 2.25 -6.179688 2.25 -5.515625 C 2.25 -4.816406 2.347656 -4.191406 2.546875 -3.640625 C 2.742188 -3.097656 3.023438 -2.632812 3.390625 -2.25 C 3.753906 -1.875 4.195312 -1.582031 4.71875 -1.375 C 5.25 -1.175781 5.835938 -1.078125 6.484375 -1.078125 C 6.992188 -1.078125 7.445312 -1.132812 7.84375 -1.25 C 8.25 -1.375 8.640625 -1.535156 9.015625 -1.734375 L 9.015625 -4.15625 L 7.296875 -4.15625 C 7.203125 -4.15625 7.125 -4.179688 7.0625 -4.234375 C 7.007812 -4.296875 6.984375 -4.367188 6.984375 -4.453125 L 6.984375 -5.296875 Z M 10.359375 -5.296875 "/></g></g></g><g fill="#123d59" fill-opacity="1"><g transform="translate(259.289711, 317.090605)"><g><path d="M 8.203125 -1.21875 L 8.203125 0 L 1.40625 0 L 1.40625 -11.03125 L 8.203125 -11.03125 L 8.203125 -9.8125 L 2.90625 -9.8125 L 2.90625 -6.15625 L 7.1875 -6.15625 L 7.1875 -4.984375 L 2.90625 -4.984375 L 2.90625 -1.21875 Z M 8.203125 -1.21875 "/></g></g></g><g fill="#123d59" fill-opacity="1"><g transform="translate(268.560495, 317.090605)"><g><path d="M 12.875 -11.03125 L 12.875 0 L 11.578125 0 L 11.578125 -8.109375 C 11.578125 -8.210938 11.578125 -8.328125 11.578125 -8.453125 C 11.585938 -8.578125 11.597656 -8.703125 11.609375 -8.828125 L 7.828125 -1.9375 C 7.710938 -1.695312 7.53125 -1.578125 7.28125 -1.578125 L 7.078125 -1.578125 C 6.828125 -1.578125 6.644531 -1.695312 6.53125 -1.9375 L 2.671875 -8.859375 C 2.703125 -8.585938 2.71875 -8.335938 2.71875 -8.109375 L 2.71875 0 L 1.40625 0 L 1.40625 -11.03125 L 2.515625 -11.03125 C 2.640625 -11.03125 2.738281 -11.015625 2.8125 -10.984375 C 2.882812 -10.960938 2.957031 -10.890625 3.03125 -10.765625 L 6.828125 -3.984375 C 6.890625 -3.859375 6.953125 -3.726562 7.015625 -3.59375 C 7.078125 -3.46875 7.128906 -3.332031 7.171875 -3.1875 C 7.222656 -3.332031 7.273438 -3.472656 7.328125 -3.609375 C 7.390625 -3.742188 7.457031 -3.875 7.53125 -4 L 11.265625 -10.765625 C 11.328125 -10.890625 11.394531 -10.960938 11.46875 -10.984375 C 11.539062 -11.015625 11.644531 -11.03125 11.78125 -11.03125 Z M 12.875 -11.03125 "/></g></g></g><g fill="#123d59" fill-opacity="1"><g transform="translate(283.231968, 317.090605)"><g><path d="M 8.203125 -1.21875 L 8.203125 0 L 1.40625 0 L 1.40625 -11.03125 L 8.203125 -11.03125 L 8.203125 -9.8125 L 2.90625 -9.8125 L 2.90625 -6.15625 L 7.1875 -6.15625 L 7.1875 -4.984375 L 2.90625 -4.984375 L 2.90625 -1.21875 Z M 8.203125 -1.21875 "/></g></g></g><g fill="#123d59" fill-opacity="1"><g transform="translate(292.502752, 317.090605)"><g><path d="M 10.34375 -11.03125 L 10.34375 0 L 9.59375 0 C 9.476562 0 9.378906 -0.0195312 9.296875 -0.0625 C 9.222656 -0.101562 9.144531 -0.171875 9.0625 -0.265625 L 2.6875 -8.578125 C 2.695312 -8.453125 2.703125 -8.328125 2.703125 -8.203125 C 2.710938 -8.078125 2.71875 -7.960938 2.71875 -7.859375 L 2.71875 0 L 1.40625 0 L 1.40625 -11.03125 L 2.171875 -11.03125 C 2.242188 -11.03125 2.300781 -11.023438 2.34375 -11.015625 C 2.394531 -11.003906 2.4375 -10.988281 2.46875 -10.96875 C 2.507812 -10.957031 2.546875 -10.929688 2.578125 -10.890625 C 2.609375 -10.859375 2.644531 -10.816406 2.6875 -10.765625 L 9.078125 -2.46875 C 9.066406 -2.601562 9.054688 -2.734375 9.046875 -2.859375 C 9.035156 -2.984375 9.03125 -3.101562 9.03125 -3.21875 L 9.03125 -11.03125 Z M 10.34375 -11.03125 "/></g></g></g><g fill="#123d59" fill-opacity="1"><g transform="translate(304.63544, 317.090605)"><g><path d="M 8.859375 -9.765625 L 5.296875 -9.765625 L 5.296875 0 L 3.8125 0 L 3.8125 -9.765625 L 0.234375 -9.765625 L 0.234375 -11.03125 L 8.859375 -11.03125 Z M 8.859375 -9.765625 "/></g></g></g><g fill="#f4b41a" fill-opacity="1"><g transform="translate(44.768542, 289.024477)"><g><path d="M 47.183594 -0.902344 L 24.34375 -59.65625 C 24.117188 -60.257812 23.066406 -60.257812 22.839844 -59.65625 L 0.0742188 -0.902344 C -0.148438 -0.449219 0.148438 0 0.828125 0 L 11.121094 0 C 11.421875 0 11.796875 -0.148438 11.871094 -0.449219 L 23.59375 -33.960938 L 35.464844 -0.449219 C 35.539062 -0.148438 35.914062 0 36.140625 0 L 46.507812 0 C 47.035156 0 47.410156 -0.449219 47.183594 -0.902344 Z M 47.183594 -0.902344 "/></g></g></g><g fill="#f4b41a" fill-opacity="1"><g transform="translate(94.356699, 289.024477)"><g><path d="M 31.332031 -48.914062 L 23.441406 -26.898438 L 11.722656 -59.65625 C 11.644531 -59.957031 11.34375 -60.109375 10.96875 -60.109375 L 0.75 -60.109375 C 0.148438 -60.109375 -0.148438 -59.65625 0.0742188 -59.207031 L 22.691406 -0.375 C 22.992188 0.148438 23.894531 0.148438 24.117188 -0.375 L 42.902344 -48.914062 Z M 31.332031 -48.914062 "/></g></g></g><g fill="#f4b41a" fill-opacity="1"><g transform="translate(139.450654, 289.024477)"><g/></g></g><g fill="#f4b41a" fill-opacity="1"><g transform="translate(158.234052, 289.024477)"><g/></g></g><g fill="#f4b41a" fill-opacity="1"><g transform="translate(177.026336, 289.024477)"><g><path d="M 49.738281 -60.109375 L 40.046875 -60.109375 C 39.519531 -60.109375 39.144531 -59.734375 39.144531 -59.433594 L 39.144531 -20.285156 L 11.421875 -59.882812 C 11.34375 -60.035156 10.894531 -60.109375 10.746094 -60.109375 L 0.75 -60.109375 C 0.375 -60.109375 0 -59.734375 0 -59.433594 L 0 -14.425781 L 11.496094 -14.425781 L 11.496094 -39.820312 L 39.144531 -0.226562 C 39.222656 -0.0742188 39.671875 0 39.820312 0 L 49.738281 0 C 50.265625 0 50.566406 -0.375 50.566406 -0.675781 L 50.566406 -59.433594 C 50.566406 -59.734375 50.265625 -60.109375 49.738281 -60.109375 Z M 49.738281 -60.109375 "/></g></g></g><g fill="#f4b41a" fill-opacity="1"><g transform="translate(230.145761, 289.024477)"><g><path d="M 34.113281 -48.613281 L 27.800781 -39.820312 L 13.523438 -59.882812 C 13.375 -60.035156 13 -60.109375 12.773438 -60.109375 L 0.902344 -60.109375 C 0.0742188 -60.109375 -0.226562 -59.507812 0.148438 -58.980469 C 7.4375 -48.761719 14.875 -38.542969 22.089844 -28.25 L 22.089844 -0.675781 C 22.089844 -0.375 22.390625 0 22.917969 0 L 32.757812 0 C 33.210938 0 33.585938 -0.375 33.585938 -0.675781 L 33.585938 -28.25 L 48.085938 -48.613281 Z M 34.113281 -48.613281 "/></g></g></g><g fill="#f4b41a" fill-opacity="1"><g transform="translate(280.635524, 289.024477)"><g><path d="M 47.183594 -0.902344 L 24.34375 -59.65625 C 24.117188 -60.257812 23.066406 -60.257812 22.839844 -59.65625 L 0.0742188 -0.902344 C -0.148438 -0.449219 0.148438 0 0.828125 0 L 11.121094 0 C 11.421875 0 11.796875 -0.148438 11.871094 -0.449219 L 23.59375 -33.960938 L 35.464844 -0.449219 C 35.539062 -0.148438 35.914062 0 36.140625 0 L 46.507812 0 C 47.035156 0 47.410156 -0.449219 47.183594 -0.902344 Z M 47.183594 -0.902344 "/></g></g></g><g fill="#f4b41a" fill-opacity="1"><g transform="translate(152.043623, 289.12823)"><g><path d="M 9.992188 -60.109375 L 7.664062 -59.511719 C 3.15625 -58.535156 0 -54.476562 0 -49.816406 L 0 0 L 2.253906 -0.527344 C 6.761719 -1.578125 9.992188 -5.558594 9.992188 -10.21875 Z M 9.992188 -60.109375 "/></g></g></g></svg>