<svg xmlns="http://www.w3.org/2000/svg" xmlns:xlink="http://www.w3.org/1999/xlink" width="6912" zoomAndPan="magnify" viewBox="0 0 5184 2592.000001" height="3456" preserveAspectRatio="xMidYMid meet" version="1.0"><defs><filter x="0%" y="0%" width="100%" height="100%" id="801d150b29"><feColorMatrix values="0 0 0 0 1 0 0 0 0 1 0 0 0 0 1 0 0 0 1 0" color-interpolation-filters="sRGB"/></filter><mask id="12a1547791"><g filter="url(#801d150b29)"><rect x="-518.4" width="6220.8" fill="#000000" y="-259.2" height="3110.400001" fill-opacity="0.18"/></g></mask><clipPath id="fcb833ba0f"><path d="M 0 0.691406 L 491.542969 0.691406 L 491.542969 686.976562 L 0 686.976562 Z M 0 0.691406 " clip-rule="nonzero"/></clipPath><clipPath id="4aceb46f19"><path d="M 491.25 343.832031 L 291.605469 686.976562 L -107.6875 686.976562 L -307.335938 343.832031 L -107.6875 0.691406 L 291.605469 0.691406 Z M 491.25 343.832031 " clip-rule="nonzero"/></clipPath><clipPath id="c4179ea9bc"><rect x="0" width="492" y="0" height="688"/></clipPath><mask id="53a41e04c1"><g filter="url(#801d150b29)"><rect x="-518.4" width="6220.8" fill="#000000" y="-259.2" height="3110.400001" fill-opacity="0.18"/></g></mask><clipPath id="5783565258"><path d="M 0 0.3125 L 576.679688 0.3125 L 576.679688 616 L 0 616 Z M 0 0.3125 " clip-rule="nonzero"/></clipPath><clipPath id="299983518b"><path d="M 576.386719 343.457031 L 376.742188 686.597656 L -22.554688 686.597656 L -222.199219 343.457031 L -22.554688 0.3125 L 376.742188 0.3125 Z M 576.386719 343.457031 " clip-rule="nonzero"/></clipPath><clipPath id="5f4d771a8a"><rect x="0" width="577" y="0" height="616"/></clipPath><clipPath id="166c56b2d2"><path d="M 3489 2211 L 4924 2211 L 4924 2591 L 3489 2591 Z M 3489 2211 " clip-rule="nonzero"/></clipPath><clipPath id="748599734b"><path d="M 4081.453125 2211.160156 L 4925.453125 3207.871094 L 4333.4375 3709.179688 L 3489.4375 2712.464844 Z M 4081.453125 2211.160156 " clip-rule="nonzero"/></clipPath><clipPath id="526829f444"><path d="M 4081.453125 2211.160156 L 4923.875 3206.007812 L 4331.859375 3707.316406 L 3489.4375 2712.464844 Z M 4081.453125 2211.160156 " clip-rule="nonzero"/></clipPath><clipPath id="48122f41c5"><path d="M 1 1943.539062 L 381 1943.539062 L 381 2591 L 1 2591 Z M 1 1943.539062 " clip-rule="nonzero"/></clipPath><clipPath id="c12d01015a"><path d="M 380.738281 2286.683594 L 181.089844 2629.824219 L -218.203125 2629.824219 L -417.851562 2286.683594 L -218.203125 1943.539062 L 181.089844 1943.539062 Z M 380.738281 2286.683594 " clip-rule="nonzero"/></clipPath><clipPath id="2f5a27b440"><path d="M 681.039062 2318.457031 L 1479.628906 2318.457031 L 1479.628906 2591 L 681.039062 2591 Z M 681.039062 2318.457031 " clip-rule="nonzero"/></clipPath><clipPath id="1ab39c7aa9"><path d="M 1279.980469 2318.457031 L 880.6875 2318.457031 L 681.039062 2518.101562 L 880.6875 2717.75 L 1279.980469 2717.75 L 1479.628906 2518.101562 Z M 1279.980469 2318.457031 " clip-rule="nonzero"/></clipPath><clipPath id="d9d1b42e68"><path d="M 2651 1536 L 4086 1536 L 4086 2591 L 2651 2591 Z M 2651 1536 " clip-rule="nonzero"/></clipPath><clipPath id="21fb174e26"><path d="M 3243.558594 1536.429688 L 4087.558594 2533.144531 L 3495.542969 3034.453125 L 2651.542969 2037.738281 Z M 3243.558594 1536.429688 " clip-rule="nonzero"/></clipPath><clipPath id="98df7b0b77"><path d="M 3243.558594 1536.429688 L 4085.980469 2531.28125 L 3493.964844 3032.585938 L 2651.542969 2037.738281 Z M 3243.558594 1536.429688 " clip-rule="nonzero"/></clipPath><clipPath id="bc2486f380"><path d="M 2002 1537 L 3494 1537 L 3494 2591 L 2002 2591 Z M 2002 1537 " clip-rule="nonzero"/></clipPath><clipPath id="afe997842b"><path d="M 3493.84375 2333.058594 L 2247.792969 2718.808594 L 2001.53125 1923.324219 L 3247.582031 1537.574219 Z M 3493.84375 2333.058594 " clip-rule="nonzero"/></clipPath><clipPath id="29fd763f4d"><path d="M 3493.84375 2333.058594 L 2248.546875 2718.578125 L 2002.28125 1923.09375 L 3247.582031 1537.574219 Z M 3493.84375 2333.058594 " clip-rule="nonzero"/></clipPath><clipPath id="d922355240"><path d="M 907 1876 L 2399 1876 L 2399 2591 L 907 2591 Z M 907 1876 " clip-rule="nonzero"/></clipPath><clipPath id="a6faadaea4"><path d="M 2398.683594 2671.851562 L 1152.632812 3057.601562 L 906.367188 2262.117188 L 2152.421875 1876.367188 Z M 2398.683594 2671.851562 " clip-rule="nonzero"/></clipPath><clipPath id="0aef064ee7"><path d="M 2398.683594 2671.851562 L 1153.386719 3057.367188 L 907.121094 2261.882812 L 2152.421875 1876.367188 Z M 2398.683594 2671.851562 " clip-rule="nonzero"/></clipPath><clipPath id="487a20613d"><path d="M 2532 1530 L 3298 1530 L 3298 1843 L 2532 1843 Z M 2532 1530 " clip-rule="nonzero"/></clipPath><clipPath id="92dd4e5929"><path d="M 3281.480469 1522.808594 L 3305.222656 1592.796875 L 2548.71875 1849.429688 L 2524.972656 1779.4375 Z M 3281.480469 1522.808594 " clip-rule="nonzero"/></clipPath><clipPath id="23df7a9832"><path d="M 3290.148438 1548.367188 L 3296.550781 1567.238281 C 3298.851562 1574.019531 3298.363281 1581.433594 3295.195312 1587.851562 C 3292.027344 1594.269531 3286.441406 1599.167969 3279.664062 1601.46875 L 2574.523438 1840.675781 C 2567.746094 1842.976562 2560.332031 1842.488281 2553.910156 1839.320312 C 2547.492188 1836.152344 2542.59375 1830.566406 2540.292969 1823.785156 L 2533.890625 1804.914062 C 2531.59375 1798.136719 2532.078125 1790.71875 2535.246094 1784.300781 C 2538.414062 1777.882812 2544 1772.984375 2550.78125 1770.683594 L 3255.917969 1531.476562 C 3262.699219 1529.179688 3270.113281 1529.664062 3276.53125 1532.832031 C 3282.953125 1536 3287.847656 1541.589844 3290.148438 1548.367188 Z M 3290.148438 1548.367188 " clip-rule="nonzero"/></clipPath><clipPath id="1816b9dea4"><path d="M 3228 1533 L 3948 1533 L 3948 2384 L 3228 2384 Z M 3228 1533 " clip-rule="nonzero"/></clipPath><clipPath id="1ad16bd288"><path d="M 3217.777344 1569.972656 L 3274.660156 1522.785156 L 3958.910156 2347.582031 L 3902.027344 2394.769531 Z M 3217.777344 1569.972656 " clip-rule="nonzero"/></clipPath><clipPath id="ebb69c1544"><path d="M 3238.550781 1552.742188 L 3253.886719 1540.015625 C 3259.398438 1535.445312 3266.496094 1533.253906 3273.625 1533.914062 C 3280.75 1534.578125 3287.320312 1538.046875 3291.890625 1543.558594 L 3941.558594 2326.667969 C 3946.128906 2332.179688 3948.324219 2339.277344 3947.660156 2346.40625 C 3946.996094 2353.53125 3943.53125 2360.101562 3938.019531 2364.671875 L 3922.683594 2377.398438 C 3917.171875 2381.96875 3910.074219 2384.164062 3902.945312 2383.5 C 3895.820312 2382.835938 3889.246094 2379.367188 3884.675781 2373.859375 L 3235.011719 1590.746094 C 3230.441406 1585.238281 3228.246094 1578.136719 3228.910156 1571.011719 C 3229.574219 1563.882812 3233.039062 1557.3125 3238.550781 1552.742188 Z M 3238.550781 1552.742188 " clip-rule="nonzero"/></clipPath><clipPath id="f01233445a"><path d="M 2525 2160 L 3960 2160 L 3960 2591 L 2525 2591 Z M 2525 2160 " clip-rule="nonzero"/></clipPath><clipPath id="e23ba0e187"><path d="M 3117.238281 2160.980469 L 3961.238281 3157.691406 L 3369.222656 3659 L 2525.222656 2662.289062 Z M 3117.238281 2160.980469 " clip-rule="nonzero"/></clipPath><clipPath id="9da5d27367"><path d="M 3117.238281 2160.980469 L 3959.660156 3155.828125 L 3367.644531 3657.136719 L 2525.222656 2662.289062 Z M 3117.238281 2160.980469 " clip-rule="nonzero"/></clipPath></defs><g mask="url(#12a1547791)"><g transform="matrix(1, 0, 0, 1, 1, 1474)"><g clip-path="url(#c4179ea9bc)"><g clip-path="url(#fcb833ba0f)"><g clip-path="url(#4aceb46f19)"><path fill="#f3b41b" d="M -307.335938 0.691406 L 491.542969 0.691406 L 491.542969 686.976562 L -307.335938 686.976562 Z M -307.335938 0.691406 " fill-opacity="1" fill-rule="nonzero"/></g></g></g></g></g><g mask="url(#53a41e04c1)"><g transform="matrix(1, 0, 0, 1, 1, 1975)"><g clip-path="url(#5f4d771a8a)"><g clip-path="url(#5783565258)"><g clip-path="url(#299983518b)"><path fill="#f3b41b" d="M -222.199219 0.3125 L 576.679688 0.3125 L 576.679688 686.597656 L -222.199219 686.597656 Z M -222.199219 0.3125 " fill-opacity="1" fill-rule="nonzero"/></g></g></g></g></g><g clip-path="url(#166c56b2d2)"><g clip-path="url(#748599734b)"><g clip-path="url(#526829f444)"><path fill="#f3b41b" d="M 4081.453125 2211.160156 L 4923.496094 3205.558594 L 4331.480469 3706.867188 L 3489.4375 2712.464844 Z M 4081.453125 2211.160156 " fill-opacity="1" fill-rule="nonzero"/></g></g></g><g clip-path="url(#48122f41c5)"><g clip-path="url(#c12d01015a)"><path fill="#f3b41b" d="M -417.851562 1943.539062 L 381.027344 1943.539062 L 381.027344 2629.824219 L -417.851562 2629.824219 Z M -417.851562 1943.539062 " fill-opacity="1" fill-rule="nonzero"/></g></g><g clip-path="url(#2f5a27b440)"><g clip-path="url(#1ab39c7aa9)"><path fill="#f3b41b" d="M 681.039062 2318.457031 L 1479.628906 2318.457031 L 1479.628906 2717.75 L 681.039062 2717.75 Z M 681.039062 2318.457031 " fill-opacity="1" fill-rule="nonzero"/></g></g><g clip-path="url(#d9d1b42e68)"><g clip-path="url(#21fb174e26)"><g clip-path="url(#98df7b0b77)"><path fill="#f3b41b" d="M 3243.558594 1536.429688 L 4085.597656 2530.832031 L 3493.585938 3032.140625 L 2651.542969 2037.738281 Z M 3243.558594 1536.429688 " fill-opacity="1" fill-rule="nonzero"/></g></g></g><g clip-path="url(#bc2486f380)"><g clip-path="url(#afe997842b)"><g clip-path="url(#29fd763f4d)"><path fill="#f3b41b" d="M 3493.84375 2333.058594 L 2247.792969 2718.808594 L 2001.53125 1923.324219 L 3247.582031 1537.574219 Z M 3493.84375 2333.058594 " fill-opacity="1" fill-rule="nonzero"/></g></g></g><g clip-path="url(#d922355240)"><g clip-path="url(#a6faadaea4)"><g clip-path="url(#0aef064ee7)"><path fill="#f3b41b" d="M 2398.683594 2671.851562 L 1152.632812 3057.601562 L 906.367188 2262.117188 L 2152.421875 1876.367188 Z M 2398.683594 2671.851562 " fill-opacity="1" fill-rule="nonzero"/></g></g></g><g clip-path="url(#487a20613d)"><g clip-path="url(#92dd4e5929)"><g clip-path="url(#23df7a9832)"><path fill="#f3b41b" d="M 3281.480469 1522.808594 L 3305.222656 1592.796875 L 2548.992188 1849.335938 L 2525.246094 1779.347656 Z M 3281.480469 1522.808594 " fill-opacity="1" fill-rule="nonzero"/></g></g></g><g clip-path="url(#1816b9dea4)"><g clip-path="url(#1ad16bd288)"><g clip-path="url(#ebb69c1544)"><path fill="#f3b41b" d="M 3217.777344 1569.972656 L 3274.660156 1522.785156 L 3958.722656 2347.359375 L 3901.84375 2394.550781 Z M 3217.777344 1569.972656 " fill-opacity="1" fill-rule="nonzero"/></g></g></g><g clip-path="url(#f01233445a)"><g clip-path="url(#e23ba0e187)"><g clip-path="url(#9da5d27367)"><path fill="#f3b41b" d="M 3117.238281 2160.980469 L 3959.28125 3155.378906 L 3367.265625 3656.6875 L 2525.222656 2662.289062 Z M 3117.238281 2160.980469 " fill-opacity="1" fill-rule="nonzero"/></g></g></g></svg>